<?xml version="1.0" encoding="UTF-8"?><svg id="Lag_1" xmlns="http://www.w3.org/2000/svg" viewBox="0 0 1024 1024"><defs><style>.cls-1{fill:#d2d2d2;}.cls-2{fill:#dedede;}.cls-3{fill:#505050;}.cls-4{fill:#fefefe;}.cls-5{fill:#4a4a4a;}.cls-6{fill:#6a6a69;}.cls-7{fill:#fcfcfc;}.cls-8{fill:#494949;}.cls-9{fill:#616161;}.cls-10{fill:#fdfdfd;}</style></defs><path class="cls-4" d="M0,0h1024v1024H0V0Z"/><path class="cls-5" d="M511,229h2c11.88,20.67,23.54,41.45,35.04,62.33,1.36,2.47,2.72,4.95,4.09,7.42.33.6.66,1.21,1.01,1.83q10.54,19.4,21.72,38.42,1.14,2,1.14,4c1.17-.28,2.34-.56,3.54-.85,1.7-.41,3.39-.81,5.09-1.21.94-.23,1.89-.45,2.86-.68,5.3-1.26,10.6-2.51,15.9-3.72,16.23-3.73,32.4-7.68,48.55-11.72,1.03-.26,2.07-.52,3.13-.78,10.64-2.66,21.26-5.35,31.85-8.2,3.94-1.06,7.88-2.08,11.83-3.08.67-.17,1.34-.35,2.03-.52,2.83-.71,5.29-1.23,8.22-1.23-.57,5.49-1.6,10.58-3.19,15.88-2.17,7.53-4.02,15.11-5.75,22.75-3.68,16.21-7.58,32.36-12.16,48.34-2.24,7.99-4.04,16.08-5.85,24.18q-1.87,8.33-3.23,12.25c-.94,2.98-.97,5.5-.82,8.61.53.3,1.06.6,1.61.91,10.44,5.92,20.83,11.9,31.11,18.1,5.21,3.14,10.43,6.27,15.67,9.37.65.39,1.31.78,1.98,1.17,1.36.8,2.71,1.6,4.07,2.41,14.52,8.6,28.99,17.28,43.38,26.09,2.28,1.39,4.57,2.77,6.87,4.13,1.2.72,2.41,1.45,3.61,2.17,1.09.65,2.18,1.3,3.31,1.97.79.55,1.58,1.1,2.39,1.67v2q-2.06,1.46-4.94,3.16c-1.05.62-2.1,1.25-3.18,1.89q-1.7,1-3.44,2.01c-1.17.69-2.34,1.38-3.5,2.07-2.3,1.36-4.59,2.72-6.89,4.07-3.46,2.04-6.91,4.1-10.35,6.17-1.11.67-2.23,1.33-3.38,2.02-3.17,1.9-6.32,3.83-9.47,5.76-2.57,1.57-5.14,3.14-7.71,4.72-1.29.79-2.58,1.58-3.88,2.38-1.82,1.12-3.64,2.23-5.46,3.35-1.07.65-2.13,1.31-3.23,1.98q-2.56,1.42-4.56,1.42.62,1.19,1.24,2.41c4.61,9.06,8.79,18.27,12.83,27.6,1.95,4.5,3.92,9,5.89,13.49.41.94.82,1.88,1.24,2.84,4.22,9.66,8.49,19.29,12.77,28.92.85,1.91,1.69,3.81,2.54,5.72,4.24,9.56,8.51,19.1,12.86,28.61.34.73.67,1.47,1.02,2.22,1.54,3.37,3.09,6.74,4.65,10.1q.79,1.73,1.6,3.49c.46.99.92,1.98,1.39,3q.97,2.59.97,6.59h-62c-4.12-8.24-8.01-16.42-11.62-24.88-1.12-2.61-2.24-5.21-3.36-7.82-.3-.71-.61-1.41-.92-2.14-2.77-6.44-5.58-12.86-8.39-19.28-1.38-3.16-2.76-6.32-4.14-9.48-.92-2.1-1.84-4.2-2.76-6.3-1.3-2.96-2.59-5.93-3.89-8.9-.4-.9-.79-1.8-1.2-2.73-.36-.83-.72-1.65-1.09-2.5-.32-.72-.63-1.44-.96-2.19q-.67-1.78-.67-3.78h-2l.86,1.89c1.55,4.23,2.44,8.53,3.39,12.93,1.75,7.91,3.62,15.78,5.62,23.62,2.41,9.49,4.62,19.01,6.75,28.56,2.58,11.54,5.29,23.03,8.28,34.47.28,1.08.56,2.16.84,3.28.24.92.48,1.85.73,2.8.52,2.45-385.48-420.29-385.48-416.29-5.35-.65,375.63,420.92,370.44,419.49-7.13-1.93-14.29-3.66-21.5-5.25-7.61-1.69-15.11-3.61-22.6-5.77-4.38-1.24-8.74-2.25-13.2-3.11-4.96-.95-12.98-2.96-17.84-4.33-11.32-3.2-22.82-5.71-34.3-8.29l-.75,2.08c-1.45,3.41-3.27,6.54-5.18,9.71-.39.65-.77,1.3-1.17,1.97-1.25,2.11-2.51,4.21-3.78,6.31-.87,1.46-1.75,2.93-2.62,4.39-2.13,3.56-4.26,7.12-6.39,10.68-1.48,2.48-2.96,4.96-4.44,7.44-5.97,10-12.02,19.95-18.07,29.9-6.03,9.91-12.01,19.84-17.96,29.8q-.87,1.46-1.77,2.95c-.51.85-1.02,1.71-1.54,2.59-1.07,1.76-2.19,3.48-3.33,5.19h-2c-1.39-2.06-2.64-4.1-3.88-6.25-.81-1.38-1.62-2.76-2.43-4.14-.43-.74-.87-1.49-1.32-2.26-2.43-4.14-4.91-8.24-7.38-12.35-1.04-1.73-2.07-3.45-3.11-5.18l-1.5-2.5q-13.76-22.93-15.6-26.01c-1.28-2.13-2.56-4.27-3.84-6.4-3.34-5.56-6.67-11.13-10-16.7-.66-1.1-1.32-2.21-2-3.35-1.25-2.09-2.5-4.19-3.75-6.28-3.52-5.88-7.14-11.67-10.9-17.39q-1.29-2.19-1.29-4.19c-.85.22-1.71.44-2.59.66-9.56,2.43-19.16,4.69-28.78,6.88-21.99,5.02-43.85,10.51-65.69,16.16-3.33.86-6.66,1.71-9.98,2.57-1,.26-2,.52-3.03.79-4.97,1.27-9.83,2.35-14.93,2.94,1.4-9.94,3.81-19.5,6.38-29.19.78-2.97,1.56-5.94,2.34-8.92.19-.73.38-1.45.58-2.2,1.59-6.1,3.04-12.23,4.44-18.38q1.17-5.11,2.27-7.31h-41v-98c-1.65-.66-3.3-1.32-5-2-1.75-.93-3.48-1.89-5.19-2.88-1.01-.58-2.03-1.17-3.07-1.77-1.09-.63-2.18-1.26-3.3-1.91q-1.69-.98-3.42-1.98-29.62-17.19-42.02-25.46c1.32-3.96,2.86-4.37,6.46-6.41.57-.33,1.13-.65,1.72-.99,1.23-.71,2.46-1.41,3.7-2.12,3.3-1.87,6.58-3.78,9.86-5.68.68-.39,1.36-.78,2.06-1.19,7.34-4.25,14.6-8.64,21.84-13.05,1.21-.73,2.42-1.47,3.62-2.2q5.93-3.6,11.75-7.36c.32-2.81.44-5.4.43-8.21.01-.85.02-1.7.03-2.57.03-2.81.04-5.63.05-8.44.02-1.95.03-3.9.05-5.84.05-5.13.08-10.26.1-15.4.03-5.23.08-10.47.12-15.7.09-10.28.15-20.55.21-30.83,14.07-.09,28.13-.16,42.2-.21,6.53-.02,13.07-.05,19.6-.09,6.32-.04,12.63-.07,18.95-.08,2.4,0,4.8-.02,7.19-.04,20.7-.18,42.45,1.14,58.32,16.43,12.49,14.32,14.02,29.79,13,48.08-1.01,11.09-5.48,19.94-13.27,27.91-.62.64-1.23,1.29-1.87,1.95-16.96,16.22-42.13,16.8-64.15,16.54-2.32,0-4.65-.02-6.97-.02-6.04-.02-12.08-.07-18.12-.12-6.19-.05-12.39-.07-18.59-.1-12.1-.05-24.2-.14-36.3-.24-.33-2.64-.66-5.28-1-8-4.47,2.65-8.93,5.3-13.4,7.95-1.52.9-3.04,1.8-4.55,2.7-2.19,1.3-4.37,2.6-6.56,3.89-.67.4-1.35.8-2.04,1.21-1.25.74-2.51,1.49-3.76,2.24-1.52.9-3.05,1.78-4.59,2.65q-2.22,1.18-3.09,3.35c.71.26,1.42.52,2.15.79,3.03,1.28,5.72,2.81,8.53,4.51,1.08.65,2.15,1.3,3.26,1.96,1.11.68,2.23,1.35,3.38,2.05,1.1.66,2.21,1.33,3.34,2.01,5.81,3.51,11.6,7.06,17.35,10.67.33-2.64.66-5.28,1-8,14-.07,27.99-.12,41.99-.16,6.5-.02,13-.04,19.5-.07,6.29-.03,12.58-.05,18.87-.06,2.38,0,4.77-.02,7.15-.03,26.97-.18,52.73,1.43,73.63,20.25,4.83,5.07,8.66,11.42,10.85,18.07-.25,4.8-2,8.58-4.06,12.88-.55,1.15-1.1,2.3-1.66,3.49-.42.87-.84,1.74-1.28,2.63h-2q-.09-1.06-.19-2.13c-1.26-10.18-4.87-20.65-12.5-27.87-14.44-11.01-31.74-14.09-49.42-14.21-.97,0-1.93-.02-2.93-.03-3.17-.03-6.33-.06-9.5-.08-2.21-.02-4.41-.04-6.62-.06-5.79-.05-11.57-.1-17.36-.15-5.91-.05-11.82-.11-17.74-.16-11.58-.11-23.17-.21-34.75-.31v5l2.46.68c4.4,1.64,8.12,3.92,12.1,6.38,1.78,1.08,3.55,2.17,5.33,3.25q1.45.88,2.94,1.78c5.31,3.19,10.67,6.3,16.02,9.42,9.51,5.54,18.98,11.13,28.27,17.03,2.97,1.89,5.97,3.73,8.98,5.55,5.34,3.24,10.64,6.54,15.9,9.89.75.48,1.5.95,2.27,1.44,9.61,6.22,15.59,12.22,20.73,22.56-4.39,2.92-7.77,3.89-13,3q-1.19-1.62-2.38-3.81c-4.21-7.08-11.2-10.51-18.08-14.65-2.75-1.66-5.47-3.36-8.19-5.06-3.65-2.28-7.31-4.56-10.97-6.83-.75-.46-1.5-.93-2.27-1.41-2-1.18-4.02-2.24-6.11-3.25-.1.74-.19,1.49-.29,2.25-1.32,9.37-3.47,18.4-5.83,27.56-.38,1.48-.75,2.96-1.13,4.45-.91,3.58-1.83,7.16-2.75,10.74,7.27-.06,14.54-.14,21.81-.24,3.38-.04,6.75-.08,10.13-.11q36.45.11,67.03-17.64c4.8-5.24,8.35-10.48,11.53-16.82.5-.97.99-1.94,1.5-2.93,6.51-12.94,12.24-26.26,18.05-39.53,3.22-7.37,6.52-14.7,9.83-22.04,4.03-8.98,8.01-17.98,11.92-27.01,4.31-9.95,8.7-19.88,13.08-29.8.4-.91.81-1.83,1.22-2.77,5.96-13.48,11.95-26.96,17.94-40.43,8.39-18.86,16.74-37.74,24.96-56.68.48-1.09.95-2.19,1.44-3.31,1.29-2.98,2.58-5.96,3.87-8.94.37-.85.74-1.69,1.11-2.56.33-.77.66-1.54,1-2.33.28-.66.57-1.31.86-1.99.76-1.98,1.39-3.77,1.72-5.87-1.23-2.49-2.52-4.72-4-7.06-.94-1.53-1.87-3.07-2.8-4.61q-.77-1.27-1.56-2.57c-3.06-5.15-5.94-10.4-8.83-15.64-.64-1.15-1.27-2.3-1.93-3.48-1.31-2.36-2.62-4.73-3.92-7.09-8.02-14.51-16.06-29-24.21-43.43-.54-.95-1.07-1.9-1.63-2.88-1.95-3.45-3.9-6.88-5.98-10.25q-1.14-1.99-1.14-3.99c-2.71,2.42-4.21,4.97-5.9,8.17-.55,1.04-1.11,2.09-1.68,3.17-.59,1.13-1.18,2.25-1.79,3.41-1.26,2.38-2.53,4.76-3.8,7.14-.32.6-.64,1.2-.97,1.82-3.03,5.67-6.17,11.27-9.35,16.85q-.8,1.4-1.61,2.83c-1.08,1.9-2.16,3.8-3.25,5.71-8.07,14.23-16.01,28.54-23.96,42.84-.33.6-.66,1.19-1,1.8-.93,1.68-1.87,3.36-2.8,5.04-.53.96-1.07,1.92-1.62,2.91-.78,1.42-1.54,2.86-2.27,4.31q1.11.42,2.25.85c18.68,7.82,30.66,25.47,38.75,43.15.33.69.66,1.39,1,2.11,8.06,18.92,7.61,45.09.49,64.19-5.72,14.14-14.07,27.54-26.49,36.71h-2c2.48,2.74,5.24,4.51,8.38,6.44,3.76,2.31,7.22,4.75,10.62,7.56-.61,4.13-2.04,7.33-4,11-3.72-.61-5.83-2.24-8.75-4.56-9.98-7.43-21.43-12.63-33.25-16.44,2.66-3.1,6.02-4.78,9.56-6.69,18.71-10.47,29.7-24.93,35.68-45.5.25-.93.5-1.86.76-2.81q.26-.93.53-1.87c4.33-19.83-1.09-42.69-11.68-59.56-14.01-19.47-35.25-30.7-58.67-34.62-7.45-1.12-14.81-1.26-22.33-1.27-1.47,0-2.94-.02-4.41-.03-3.95-.03-7.89-.04-11.84-.06-4.14-.02-8.28-.04-12.42-.07-7.82-.05-15.65-.08-23.47-.12-8.91-.04-17.83-.09-26.74-.14-17.67-.1-35.34-.19-53.01-.26-1.07,0-1.94.87-1.92,1.94h0c.22,15.67.39,31.35.49,47.02.05,7.58.12,15.16.24,22.74.1,6.61.16,13.21.19,19.82.01,3.5.04,7,.12,10.49.08,3.91.08,7.81.08,11.72q.05,1.73.11,3.5c-.04,3.22-.16,5.71-1.24,8.74-3.27,3.06-7.37,6-12,6v-144q39.69-.12,56.4-.15c11.51-.02,23.02-.04,34.53-.08,8.39-.03,16.77-.05,25.16-.06,4.43,0,8.87-.01,13.3-.03,4.19-.02,8.37-.03,12.56-.02,1.52,0,3.05,0,4.57-.02,14.48-.11,28.14,1.84,41.85,6.69,2.91.74,3.92.86,6.64-.33q1.79-2.47,3.32-5.62c.3-.57.6-1.15.91-1.74.64-1.23,1.28-2.47,1.91-3.7,1.66-3.25,3.35-6.47,5.05-9.7.33-.64.66-1.27,1.01-1.93,2.5-4.78,5.14-9.44,7.93-14.06,3.92-6.52,7.58-13.17,11.19-19.88,4.78-8.89,9.66-17.7,14.65-26.47,5.13-9.03,10.17-18.11,15.19-27.21.6-1.09,1.21-2.18,1.83-3.3.54-.97,1.07-1.94,1.62-2.94,1.06-1.86,2.21-3.67,3.4-5.45Z"/><path class="cls-7" d="M583,355h38c6.41,13.96,12.65,27.99,18.81,42.06,5.73,13.09,11.5,26.17,17.37,39.21,4.17,9.27,8.31,18.56,12.44,27.85.33.74.66,1.48.99,2.24,4.11,9.26,8.21,18.52,12.31,27.78.42.95.83,1.89,1.26,2.86,2.03,4.59,4.05,9.18,6.08,13.77.38.85.75,1.7,1.14,2.58.74,1.68,1.48,3.37,2.22,5.05,1.94,4.4,3.92,8.78,5.97,13.14.42.91.85,1.82,1.28,2.75.81,1.74,1.63,3.47,2.47,5.19q2.67,5.75,2.58,9.43c-1.58,3.53-4.87,4.94-8.12,6.76-1.63.96-3.26,1.91-4.89,2.87-.92.53-1.85,1.07-2.8,1.62-5.56,3.24-11.06,6.57-16.58,9.88-1.94,1.16-3.88,2.32-5.82,3.48-1.24.74-2.48,1.48-3.72,2.22-1.68,1-3.36,2-5.04,3q-2.06,1.26-4.27,2.96c-7.38,5.29-12.93,6.26-21.88,6.07-1.27,0-2.54,0-3.85,0-3.45,0-6.89-.04-10.34-.09-3.61-.04-7.23-.05-10.84-.06-6.83-.02-13.66-.08-20.48-.15-7.78-.08-15.56-.12-23.34-.15-15.99-.07-31.98-.2-47.97-.35-.2.61-.4,1.21-.6,1.83q-.4,1.2-.8,2.43c-.26.79-.52,1.58-.79,2.4-1.18,3.41-2.59,6.69-4.07,9.98-.31.69-.61,1.38-.93,2.09-.65,1.45-1.3,2.89-1.95,4.34-.97,2.16-1.93,4.33-2.88,6.5-11.25,25.16-28.21,42.44-53.98,52.43-.98.39-1.97.78-2.98,1.18-5.88,2.14-11.8,3.41-17.93,4.57-11.71,2.28-23.27,5.12-34.84,8-2.15.53-4.3,1.06-6.46,1.59-9.68,2.39-19.36,4.79-29.03,7.22-.76.19-1.52.38-2.3.58-3.47.87-6.94,1.74-10.4,2.62-1.19.3-2.37.6-3.59.91q-1.53.39-3.09.78-2.39.54-4.39.54c3.15-16.9,7.26-33.47,12-50q1.11,0,2.24-.02c7.04-.06,14.09-.13,21.13-.22,3.62-.04,7.24-.08,10.86-.11q40.33-.23,74.96-19.28c8.61-9.46,14.66-20.3,20.06-31.81.65-1.37,1.3-2.73,1.95-4.09,5.65-11.91,10.89-24,16.07-36.12,3.94-9.19,8-18.33,12.04-27.47.41-.92.81-1.84,1.23-2.79,5.81-13.14,11.64-26.27,17.49-39.39,5.82-13.07,11.57-26.16,17.31-39.27,5.33-12.17,10.72-24.31,16.17-36.43,3.91-8.69,7.76-17.41,11.58-26.13,4.24-9.65,8.56-19.26,12.91-28.87Z"/><path class="cls-10" d="M530.53,598.88c.94,0,1.88,0,2.85.01q1.48,0,2.99,0c3.27,0,6.55,0,9.82.02,2.26,0,4.53,0,6.79,0,5.97,0,11.94.01,17.91.02,6.09.01,12.17.01,18.26.02,11.95.01,23.9.03,35.85.05-2.37,2.46-4.68,4.01-7.61,5.75-7.04,4.88-10.51,11.88-14.57,19.18-1.24,2.18-2.5,4.35-3.75,6.52-.84,1.45-1.67,2.91-2.5,4.36-3.56,6.23-7.33,12.31-11.19,18.37-5.43,8.59-10.64,17.28-15.75,26.06-5.62,9.66-11.31,19.27-17.12,28.81-.35.57-.7,1.15-1.06,1.74-1.76,2.9-3.53,5.79-5.3,8.69-3.28,5.37-6.55,10.74-9.81,16.11-1.07,1.75-2.14,3.51-3.21,5.26-3.39,5.56-6.71,11.14-9.94,16.79-.59,1.03-1.19,2.06-1.8,3.13-1.11,1.93-2.2,3.88-3.28,5.83-.49.85-.97,1.7-1.47,2.57q-.62,1.12-1.26,2.25c-.45.52-.91,1.04-1.38,1.58h-4q-1.74-2.22-3.51-5.36c-.33-.57-.65-1.13-.99-1.72-.71-1.23-1.4-2.47-2.1-3.71-1.49-2.67-3.01-5.32-4.53-7.97-.79-1.38-1.58-2.75-2.36-4.13-3.84-6.72-7.85-13.32-11.89-19.92-1.39-2.29-2.79-4.57-4.18-6.86-.35-.58-.7-1.16-1.07-1.75-4.23-6.95-8.42-13.93-12.59-20.91-.85-1.43-1.71-2.86-2.57-4.28-1.19-1.99-2.38-3.98-3.57-5.97-.36-.59-.71-1.18-1.08-1.79-1.67-2.83-3.02-5.36-3.58-8.62q1.54-.74,3.11-1.5c34.42-16.79,48.61-41.22,63-75.54,1.83-4.04,4.28-3.07,8.42-3.08Z"/><path class="cls-7" d="M601,419c2.73,2.38,3.92,4.7,5.3,8.04.43,1.02.86,2.05,1.3,3.11.46,1.11.91,2.22,1.38,3.37.99,2.38,1.98,4.75,2.97,7.13.51,1.24,1.02,2.47,1.54,3.71,2.37,5.69,4.79,11.36,7.21,17.02.95,2.23,1.9,4.47,2.85,6.7.97,2.27,1.93,4.54,2.9,6.81.5,1.17,1,2.35,1.51,3.55,6.53,15.33,13.07,30.66,19.65,45.98.38.89.76,1.78,1.15,2.69.96,2.22,1.92,4.43,2.89,6.65.28.64.56,1.28.84,1.94.79,1.82,1.59,3.64,2.38,5.46q1.14,2.85,1.14,4.85h-108c.89-4.43,2.18-8.19,3.92-12.31q.44-1.07.9-2.15c.97-2.33,1.95-4.65,2.93-6.98.68-1.63,1.37-3.27,2.05-4.9,5.46-13,11.04-25.93,16.67-38.85,3.46-7.94,6.86-15.91,10.27-23.87.32-.74.64-1.48.96-2.25,1.53-3.58,3.07-7.16,4.6-10.74,2.37-5.55,4.75-11.09,7.13-16.63.71-1.65,1.41-3.3,2.12-4.95q.71-1.66,1.44-3.36Z"/><path class="cls-7" d="M666,599c2.66,7.47,4.5,15.02,6.25,22.75.62,2.69,1.24,5.37,1.86,8.06.16.68.31,1.36.48,2.07,1.61,6.99,3.29,13.97,4.98,20.94.29,1.18.57,2.37.87,3.59,1.44,5.94,2.88,11.87,4.34,17.8q.42,1.72.85,3.47c.53,2.16,1.06,4.32,1.6,6.48.23.96.47,1.92.71,2.91q.31,1.25.63,2.54c.46,2.52.52,4.85.44,7.4q-1.86-.42-3.75-.84c-3.61-.8-7.22-1.58-10.84-2.35-13.64-2.93-27.11-6.26-40.57-9.89-15.5-4.18-31.09-7.79-46.84-10.92,1.43-3.89,3.26-7.27,5.42-10.8.34-.55.67-1.1,1.02-1.67,1.1-1.8,2.2-3.6,3.31-5.4,1.55-2.52,3.1-5.05,4.65-7.57.39-.63.78-1.27,1.18-1.92,2.49-4.07,4.9-8.17,7.27-12.31q10.66-18.49,21.15-24.32c1.2-.88,2.39-1.77,3.57-2.67,10.4-7.65,18.72-8.58,31.43-7.33Z"/><path class="cls-10" d="M419,404c9.63,3.52,15.66,9.83,20,19,4.82,10.59,4.51,23.49,1.06,34.44-4.3,10.52-11.82,17.8-22.06,22.56-9.18,3.61-17.5,5.15-27.31,5.11-.92,0-1.84,0-2.78,0-3.02,0-6.04,0-9.06-.02-2.1,0-4.2,0-6.3,0-5.51,0-11.03-.01-16.54-.02-5.63-.01-11.26-.01-16.89-.02-11.04-.01-22.08-.03-33.12-.05v-5q1.02-.59,2.07-1.19c13.92-7.99,27.79-16.06,41.53-24.37,2.44-1.47,4.89-2.94,7.34-4.4,11.24-6.71,22.43-13.48,33.5-20.45,2.52-1.58,5.06-3.12,7.6-4.66,9.35-5.81,15.91-10.98,20.96-20.93Z"/><path class="cls-8" d="M601,388c3.35,2.7,4.6,6.31,6.15,10.18.3.72.59,1.44.9,2.18.64,1.55,1.27,3.1,1.9,4.65,1.34,3.3,2.7,6.59,4.06,9.89.69,1.67,1.38,3.34,2.06,5.01,2.85,6.93,5.77,13.83,8.74,20.72.47,1.1.94,2.2,1.43,3.33,1.02,2.36,2.03,4.73,3.05,7.09,3.43,7.96,6.85,15.93,10.27,23.9.38.88.75,1.75,1.14,2.65,7.08,16.5,14.07,33.03,21.02,49.58.76,1.8,1.51,3.6,2.27,5.39.36.85.71,1.69,1.08,2.56,2.25,5.33,4.6,10.6,7.15,15.8q.79,2.07.79,6.07h-143q3.37-11.25,5.25-15.51c.42-.96.84-1.92,1.27-2.91.45-1.01.89-2.02,1.35-3.06.47-1.08.94-2.16,1.43-3.27,1-2.3,2.01-4.59,3.02-6.88,2.63-5.99,5.25-12,7.87-18,.51-1.18,1.03-2.35,1.55-3.56,3.83-8.78,7.59-17.59,11.27-26.44,4.36-10.46,8.78-20.9,13.25-31.31,5.76-13.4,11.48-26.82,17.19-40.25.38-.9.76-1.8,1.16-2.72,2.14-5.03,4.27-10.06,6.41-15.09ZM601,419c-14.04,32.41-27.97,64.87-41.81,97.38-.44,1.04-.89,2.09-1.35,3.16-1.27,2.97-2.53,5.95-3.8,8.92-.38.89-.76,1.78-1.15,2.7-.68,1.61-1.36,3.21-2.04,4.82-.69,1.65-1.4,3.29-2.1,4.93q-.92,2.19-.75,5.09h108q-2.22-6.84-4.83-13.46c-.33-.76-.66-1.52-1-2.3q-.52-1.19-1.06-2.41c-.37-.86-.75-1.72-1.13-2.61-.8-1.85-1.61-3.69-2.41-5.54-2.15-4.92-4.29-9.86-6.42-14.79-.43-1-.87-2-1.31-3.03-4.17-9.64-8.27-19.31-12.33-29-.66-1.57-1.32-3.14-1.98-4.7-2.4-5.72-4.8-11.44-7.2-17.17-1.5-3.59-3.01-7.17-4.51-10.75-.42-1.01-.84-2.02-1.28-3.06-2.61-6.19-5.45-12.22-8.54-18.19h-1Z"/><path class="cls-7" d="M713,562q1.28,2.2,2.57,5.18c.49,1.12.99,2.24,1.5,3.39.54,1.25,1.08,2.5,1.62,3.75.57,1.3,1.15,2.61,1.72,3.91,1.23,2.8,2.46,5.6,3.68,8.4,1.9,4.36,3.83,8.7,5.77,13.05.32.73.65,1.45.98,2.2.66,1.48,1.32,2.96,1.98,4.45,1.68,3.78,3.36,7.56,5.04,11.34,2.48,5.58,4.96,11.16,7.44,16.74,1.45,3.25,2.9,6.51,4.35,9.76.69,1.54,1.37,3.08,2.06,4.61q11.3,25.32,11.3,28.23h-37q-3.25-7.61-6.56-15.38c-5.38-12.58-10.83-25.12-16.38-37.62-4.05-9.15-8.1-18.29-12-27.5-.32-.76-.65-1.52-.98-2.3q-2.08-4.96-2.08-7.2h-19c2.92-2.92,5.55-4.68,9.07-6.8.59-.36,1.19-.72,1.8-1.09,1.9-1.15,3.8-2.28,5.7-3.42,1.25-.75,2.5-1.51,3.75-2.26,2.43-1.47,4.86-2.92,7.3-4.38,2.15-1.3,4.29-2.62,6.42-3.96.89-.56,1.77-1.12,2.69-1.69.76-.49,1.53-.98,2.31-1.49q1.97-.91,4.97.09Z"/><path class="cls-10" d="M306,399q24.05-.04,34.29-.05c6.99,0,13.98-.01,20.97-.03,5.63-.01,11.27-.02,16.9-.02,2.15,0,4.3,0,6.45-.01,3.01,0,6.02,0,9.03,0,.89,0,1.79,0,2.7-.01.82,0,1.64,0,2.49,0q1.07,0,2.16,0c2.11.13,3.98.55,6.01,1.12-.66,4.43-3.04,7.47-6.55,10.21-1.89,1.29-3.82,2.52-5.76,3.73-.74.47-1.47.93-2.23,1.41-14.03,8.85-28.28,17.37-42.52,25.88-5.06,3.03-10.1,6.08-15.13,9.15-1.26.77-2.53,1.54-3.79,2.31-1.87,1.14-3.73,2.28-5.6,3.42-1.74,1.07-3.48,2.13-5.22,3.19q-1.51.92-3.04,1.86c-3.63,2.1-7.41,3.95-11.16,5.82v-68Z"/><path class="cls-7" d="M693,327c-1.17,7.89-2.82,15.46-5,23.12-3.86,13.89-7.16,27.9-10.45,41.94-2.11,9-4.3,17.96-6.72,26.89-1,3.67-1.92,7.35-2.83,11.05-2.7-1.35-2.92-2.67-4.12-5.42-.43-.98-.86-1.97-1.31-2.98-.48-1.1-.96-2.21-1.45-3.35-.79-1.79-1.57-3.59-2.36-5.38-.59-1.34-1.17-2.67-1.76-4.01-2.66-6.07-5.35-12.13-8.04-18.18-.44-.99-.88-1.97-1.33-2.99-1.77-3.98-3.55-7.96-5.32-11.95-4.85-10.89-9.67-21.78-14.32-32.75.75-.19,1.51-.37,2.28-.56,13.95-3.45,27.88-6.95,41.71-10.87,3.46-.98,6.92-1.93,10.38-2.88,1.18-.33,2.37-.65,3.59-.99q3.04-.7,7.04-.7Z"/><path class="cls-7" d="M679,458c3.47,1.31,6.59,2.83,9.77,4.72.9.53,1.8,1.07,2.73,1.62.95.57,1.9,1.14,2.88,1.72.98.58,1.97,1.17,2.98,1.77,2.88,1.72,5.77,3.44,8.65,5.17q1.11.67,2.25,1.35c3.67,2.2,7.34,4.4,11.01,6.61,2.36,1.42,4.73,2.84,7.1,4.26,1.22.73,2.44,1.47,3.66,2.2,3.64,2.18,7.27,4.36,10.91,6.54,9.39,5.62,18.76,11.28,28.07,17.05-1.36,4.07-3.07,4.41-6.81,6.44-1.28.71-2.56,1.41-3.84,2.12-.7.39-1.39.77-2.11,1.17-4.11,2.32-8.14,4.77-12.18,7.2-.85.51-1.69,1.02-2.57,1.54-4.02,2.41-8.03,4.85-12,7.33-.69.43-1.38.85-2.09,1.29-1.28.79-2.56,1.59-3.83,2.4q-1.71,1.05-4.58,2.5-3-1-4.14-2.91c-.37-.85-.73-1.7-1.11-2.58-.43-.99-.87-1.99-1.32-3.01-.47-1.11-.95-2.22-1.43-3.37-.78-1.8-1.56-3.6-2.35-5.4-.89-2.04-1.77-4.08-2.65-6.12-2.24-5.17-4.52-10.33-6.81-15.48-.42-.94-.83-1.88-1.26-2.85-.85-1.91-1.7-3.83-2.54-5.74-5.53-12.48-11.05-24.97-16.39-37.54Z"/><path class="cls-7" d="M306,557c5.87,2.93,11.35,5.69,16.89,9.07.59.36,1.19.72,1.8,1.09,1.23.75,2.47,1.51,3.7,2.26,1.87,1.15,3.75,2.29,5.62,3.43,5.4,3.29,10.75,6.62,15.99,10.15-1.99,11.13-4.7,22.06-7.49,33.01-.29,1.16-.59,2.32-.89,3.51-.26,1.03-.53,2.06-.8,3.12-1.01,4.1-1.91,8.23-2.82,12.35h-32v-78Z"/><path class="cls-5" d="M248,535l12,6v136h57q-1,8-2,12h-67v-154Z"/><path class="cls-1" d="M678,599h2c.7,1.58,1.39,3.16,2.06,4.75.38.88.77,1.76,1.16,2.67.84,2.79.69,3.88-.22,6.58-.04,1.67-.05,3.33,0,5-2.18-3.68-2.86-7.6-3.62-11.75-.13-.7-.27-1.39-.41-2.11-.33-1.71-.65-3.42-.97-5.14Z"/><path class="cls-6" d="M400,345c5.78-.12,11.28.17,17,1v1q-11.52,1.52-17-1v-1Z"/><path class="cls-9" d="M319,710h7v2c-2.31.33-4.62.66-7,1v-3Z"/><path class="cls-2" d="M681,606q1.56,1.25,3,3-.31,1.88-1,4c-.04,1.67-.05,3.33,0,5-2.6-3.9-2.15-7.47-2-12Z"/><path class="cls-3" d="M443,507q2.19.31,4,1c-.33.99-.66,1.98-1,3q-2.97-.49-6-1,1.25-1.56,3-3Z"/></svg>